<?xml version="1.0" encoding="UTF-8"?><!DOCTYPE svg PUBLIC "-//W3C//DTD SVG 1.1//EN" "http://www.w3.org/Graphics/SVG/1.1/DTD/svg11.dtd"><svg xmlns="http://www.w3.org/2000/svg" xml:space="preserve" width="2476px" height="2674px" version="1.1" style="shape-rendering:geometricPrecision; text-rendering:geometricPrecision; image-rendering:optimizeQuality; fill-rule:evenodd; clip-rule:evenodd"
viewBox="0 0 2472 2670" xmlns:xlink="http://www.w3.org/1999/xlink"><defs><style type="text/css"><![CDATA[.fil0 {fill:#FEFEFE}]]></style></defs><g id="Слой_x0020_1"><metadata id="CorelCorpID_0Corel-Layer"/><path class="fil0" d="M2333 541l-312 0c22,-31 36,-62 49,-98 27,-89 18,-183 -27,-263 -44,-80 -116,-138 -205,-165 -89,-27 -183,-18 -263,27 -161,89 -277,272 -339,401 -63,-129 -179,-316 -339,-401 -170,-89 -379,-27 -469,138 -62,121 -53,259 23,361l-313 0c-76,0 -138,63 -138,139l0 419c0,76 62,138 138,138l40 0 0 1165c0,147 121,268 268,268l1584 0c147,0 268,-121 268,-268l0 -1165 35 0c76,0 139,-62 139,-138l0 -419c4,-76 -58,-139 -139,-139zm-705 -410c58,-31 121,-36 183,-18 58,18 107,58 139,116 31,58 35,121 17,183 -17,54 -49,98 -98,129l-557 0c49,-116 160,-321 316,-410zm-1106 98c67,-116 210,-160 326,-98 156,85 267,294 316,406l-562 0c-102,-62 -138,-201 -80,-308zm660 1008l0 612 -896 0 0 -612 896 0zm-896 1165l0 -446 901 0 0 611 -741 0c-89,0 -160,-76 -160,-165zm1744 165l-741 0 0 -611 901 0 0 446c0,89 -71,165 -160,165zm160 -718l-901 0 0 -612 901 0 0 612zm179 -750c0,18 -13,31 -31,31l-90 0c0,0 0,0 0,0 0,0 0,0 0,0l-1012 0c0,0 0,0 0,0 0,0 0,0 0,0l-1004 0c0,0 0,0 0,0 0,0 0,0 0,0l-89 0c-18,0 -31,-13 -31,-31l0 -419c0,-18 13,-31 31,-31l2195 0c18,0 31,13 31,31l0 419z"/></g></svg>
