<?xml version="1.0" encoding="utf-8"?>
<!DOCTYPE svg PUBLIC "-//W3C//DTD SVG 1.1//EN" "http://www.w3.org/Graphics/SVG/1.1/DTD/svg11.dtd">
<!-- Creator: CorelDRAW X7 -->
<svg xmlns="http://www.w3.org/2000/svg" xml:space="preserve" width="1308px" height="237px" version="1.1" style="shape-rendering:geometricPrecision; text-rendering:geometricPrecision; image-rendering:optimizeQuality; fill-rule:evenodd; clip-rule:evenodd"
viewBox="0 0 12627 2289"
  xmlns:xlink="http://www.w3.org/1999/xlink">
  <defs>
  <style type="text/css">
      <![CDATA[
    .fil0 {fill:#111111}
      ]]>
  </style>
    </defs>
    <g id="Слой_x0020_1">
  <metadata id="CorelCorpID_0Corel-Layer"/>
  <g id="_1880649442480">
    <path class="fil0" d="M151 2088c-101,-126 -151,-315 -151,-554l0 -792c0,-239 50,-428 151,-553 101,-126 277,-189 528,-189 239,0 403,50 503,163 101,114 151,265 151,478l0 189 -503 0 0 -226c0,-88 -13,-151 -25,-202 -13,-37 -63,-62 -126,-62 -63,0 -126,25 -138,75 -25,50 -38,113 -38,201l0 1044c0,88 13,151 38,201 25,51 63,76 138,76 63,0 113,-25 126,-76 25,-50 25,-113 25,-201l0 -226 491 0 0 188c0,202 -51,365 -151,491 -101,113 -264,176 -503,176 -239,-13 -415,-75 -516,-201z"/>
    <path class="fil0" d="M1912 25l566 0 415 2214 -453 0 -76 -466 -327 0 -75 466 -465 0 415 -2214zm402 1459l-113 -868 -113 868 226 0z"/>
    <polygon class="fil0" points="3245,390 2905,390 2905,25 4075,25 4075,390 3735,390 3735,2239 3232,2239 3232,390 "/>
    <polygon class="fil0" points="4968,25 5836,25 5836,252 5282,252 5282,981 5735,981 5735,1195 5282,1195 5282,2000 5848,2000 5848,2226 4968,2226 "/>
    <polygon class="fil0" points="6100,25 6314,25 6955,1497 6955,25 7219,25 7219,2239 7018,2239 6376,729 6376,2239 6112,2239 6112,25 "/>
    <polygon class="fil0" points="7521,25 8389,25 8389,252 7835,252 7835,981 8288,981 8288,1195 7835,1195 7835,2000 8401,2000 8401,2226 7521,2226 "/>
    <path class="fil0" d="M8653 25l453 0c226,0 390,50 503,138 113,89 163,239 163,453 0,290 -88,453 -276,516l314 1107 -302 0 -289 -1044 -239 0 0 1044 -315 0 0 -2214 -12 0zm428 956c138,0 226,-25 289,-75 63,-51 88,-151 88,-290 0,-88 -13,-163 -25,-214 -13,-50 -51,-88 -114,-113 -50,-25 -125,-37 -213,-37l-139 0 0 729 114 0z"/>
    <path class="fil0" d="M10162 2075c-88,-126 -138,-314 -138,-566l0 -729c0,-176 12,-315 50,-428 38,-113 101,-189 189,-251 88,-63 214,-88 364,-88 202,0 353,50 453,150 88,101 139,265 139,491l0 88 -290 0 0 -75c0,-101 -12,-189 -25,-239 -12,-63 -38,-101 -88,-126 -38,-38 -100,-50 -176,-50 -88,0 -151,25 -189,62 -37,38 -75,88 -88,151 -12,63 -12,151 -12,264l0 818c0,163 25,289 63,365 37,75 125,113 239,113 113,0 201,-38 239,-126 37,-75 62,-214 62,-390l0 -151 -289 0 0 -213 566 0 0 1094 -201 0 -25 -252c-76,189 -201,277 -403,277 -201,0 -352,-63 -440,-189z"/>
    <polygon class="fil0" points="11860,1459 11370,25 11659,25 11998,1094 12338,25 12627,25 12149,1459 12149,2239 11847,2239 11847,1459 "/>
  </g>
  </g>
</svg>
