<?xml version="1.0" encoding="UTF-8"?>
<!DOCTYPE svg PUBLIC "-//W3C//DTD SVG 1.1//EN" "http://www.w3.org/Graphics/SVG/1.1/DTD/svg11.dtd">
<!-- Creator: CorelDRAW X7 -->
<svg xmlns="http://www.w3.org/2000/svg" xml:space="preserve" width="432px" height="490px" version="1.1" style="shape-rendering:geometricPrecision; text-rendering:geometricPrecision; image-rendering:optimizeQuality; fill-rule:evenodd; clip-rule:evenodd"
viewBox="0 0 75 85"
 xmlns:xlink="http://www.w3.org/1999/xlink">
 <defs>
  <style type="text/css">
   <![CDATA[
    .fil2 {fill:black}
    .fil1 {fill:#F06351}
    .fil0 {fill:#FDC305}
   ]]>
  </style>
 </defs>
 <g id="Слой_x0020_1">
  <metadata id="CorelCorpID_0Corel-Layer"/>
  <g id="_1880669440032">
   <path class="fil0" d="M14 47l0 -5c15,-2 30,-3 46,-3 0,1 0,3 0,4 0,0 6,-3 13,-4 -5,-15 -19,-25 -35,-25 -19,0 -35,14 -38,32 5,1 14,1 14,1z"/>
   <path class="fil0" d="M62 55c-3,3 -3,3 -3,8 0,2 0,11 0,21 10,-7 16,-19 16,-32 0,-2 0,-5 0,-7 -4,3 -11,7 -13,10z"/>
   <path class="fil0" d="M15 58c0,0 -9,-3 -12,-4 -1,0 -2,0 -3,0 0,13 8,25 20,31l-5 -27z"/>
  </g>
  <path class="fil1" d="M60 39c0,-19 -4,-38 -4,-38 0,0 0,-2 -2,0 -1,2 -2,9 -2,9 -17,-1 -29,0 -29,0 -2,-5 -5,-8 -7,-8 -1,1 -1,8 -1,8l-1 32c15,-2 30,-3 46,-3z"/>
  <path class="fil2" d="M28 32c0,0 2,1 3,2 1,0 2,1 2,1 0,1 -1,1 -2,1 0,0 -2,0 -2,-1 0,0 1,0 2,0l1 0c0,0 -3,-2 -4,-3z"/>
  <path class="fil2" d="M45 32c0,0 -2,3 -2,3 0,0 -1,1 0,1 1,0 3,-1 3,-1 0,0 0,-1 0,-1 -1,0 -2,0 -3,1l2 -3c0,0 0,0 0,0z"/>
  <path class="fil2" d="M38 46c0,0 2,-1 3,-2 0,-2 0,-2 -1,-3 -1,0 -3,0 -4,1 -1,1 -1,2 0,2 0,1 1,2 2,2z"/>
  <path class="fil1" d="M37 49c0,0 0,1 -1,1 -1,1 -2,1 -2,1 -2,0 -3,0 -4,-1 0,0 -1,-1 -1,-1 0,0 -1,0 -1,0 0,0 2,9 6,10 4,2 5,-1 5,-2 0,-1 0,-5 -2,-8 0,0 0,0 0,0z"/>
  <g id="_1880669443616">
   <path class="fil2" d="M33 51c0,0 0,0 0,0 -3,0 -5,-3 -5,-3 0,0 0,0 0,0 0,0 1,0 1,0 0,0 2,3 4,3 0,0 0,0 0,0 2,0 3,-1 4,-3l0 0 0 0c0,0 1,2 3,2 1,0 2,-1 3,-3 0,0 1,0 1,0 0,0 0,0 0,1 -2,2 -3,3 -5,3 -1,0 -2,-1 -2,-2 -1,2 -2,2 -4,2z"/>
  </g>
  <path class="fil1" d="M59 43c0,0 -5,5 -11,12 -6,6 -12,11 -12,11 0,-1 -4,-4 -4,-4 0,0 -7,-4 -11,-8 -3,-3 -6,-5 -7,-7 -1,0 -3,0 -5,0 11,16 27,20 27,20 2,-1 8,-5 12,-8 4,-3 11,-10 13,-13 2,-2 2,-3 3,-5 -3,1 -5,2 -5,2z"/>
 </g>
</svg>
